{"title":"Rogue 2007 720p BRRip H264 AAC-Rx(Phoenix-RG)","uid":5818711,"size":1570245839,"categoryP":"video","categoryS":"hd___movies","magnet":"?xt=urn:btih:c7d35c530be649faf4110ad4028591971887eb3c&amp;dn=Rogue+2007+720p+BRRip+H264+AAC-Rx%28Phoenix-RG%29&amp;tr=udp%3A%2F%2Ftracker.openbittorrent.com%3A80&amp;tr=udp%3A%2F%2Fopen.demonii.com%3A1337&amp;tr=udp%3A%2F%2Ftracker.coppersurfer.tk%3A6969&amp;tr=udp%3A%2F%2Fexodus.desync.com%3A6969","seeders":1,"leechers":0,"uploader":"rev-x","files":8,"time":1283965319,"description":"Rogue 2007 720p BRRip H264 AAC-Rx(Phoenix-RG).mp4\n      Format : MPEG-4 / AVC\n      File size : 1.46 GiB\n      Duration : 1h 39mn\n      Bit rate : 1 800 Kbps\n      Width : 1 280 pixels\n      Height : 720 pixels\n      Display aspect ratio : 16/9\n      Frame rate : 23.976 fps\n      Resolution : 24 bits\n      Colorimetry : 4:2:0\n      Scan type : Progressive\n      Bits/(Pixel*Frame) : 0.081\n      Stream size : 1.24 GiB (85%)\n     \n      \nAUDIO:\n      Format : AAC / LC\n      Duration : 1h 39mn\n      Bit rate : 315 Kbps\n      Channel(s) : 6 channels\n      Channel positions : Front: L C R, Rear: L R, LFE\n      Sampling rate : 48.0 KHz\n      Resolution : 16 bits\n      Stream size : 223 MiB (15%)\n\nSCREEN:\n &lt;a href=&quot;\nhttp://img97.imageshack.us/img97/9459/vlcsnap2010090808h21m07.jpg&quot; rel=&quot;nofollow&quot; target=&quot;_NEW&quot;&gt;\nhttp://img97.imageshack.us/img97/9459/vlcsnap2010090808h21m07.jpg&lt;/a&gt;\n &lt;a href=&quot;\nhttp://img713.imageshack.us/img713/6320/vlcsnap2010090808h14m22.jpg&quot; rel=&quot;nofollow&quot; target=&quot;_NEW&quot;&gt;\nhttp://img713.imageshack.us/img713/6320/vlcsnap2010090808h14m22.jpg&lt;/a&gt;\n &lt;a href=&quot;\nhttp://img843.imageshack.us/img843/8563/vlcsnap2010090808h12m31.jpg&quot; rel=&quot;nofollow&quot; target=&quot;_NEW&quot;&gt;\nhttp://img843.imageshack.us/img843/8563/vlcsnap2010090808h12m31.jpg&lt;/a&gt;","torrent":{"xt":"urn:btih:c7d35c530be649faf4110ad4028591971887eb3c","amp;dn":"Rogue+2007+720p+BRRip+H264+AAC-Rx%28Phoenix-RG%29","amp;tr":["udp%3A%2F%2Ftracker.openbittorrent.com%3A80","udp%3A%2F%2Fopen.demonii.com%3A1337","udp%3A%2F%2Ftracker.coppersurfer.tk%3A6969","udp%3A%2F%2Fexodus.desync.com%3A6969"],"infoHash":"c7d35c530be649faf4110ad4028591971887eb3c","infoHashBuffer":{"type":"Buffer","data":[199,211,92,83,11,230,73,250,244,17,10,212,2,133,145,151,24,135,235,60]},"announce":[],"urlList":[]}}